<?xml version="1.0" encoding="utf-8"?>
<!-- Generator: Adobe Illustrator 26.0.0, SVG Export Plug-In . SVG Version: 6.00 Build 0)  -->
<svg version="1.1" id="Layer_1" xmlns="http://www.w3.org/2000/svg" xmlns:xlink="http://www.w3.org/1999/xlink" x="0px" y="0px"
	 viewBox="0 0 100 25" style="enable-background:new 0 0 100 25;" xml:space="preserve">
<style type="text/css">
	.st0{clip-path:url(#SVGID_00000152970143933070140390000013028196989940577924_);}
	.st1{fill:#606060;}
</style>
<g id="app-store" transform="translate(0.4 -0.1)">
	<g>
		<defs>
			<rect id="SVGID_1_" x="-0.4" y="0.1" width="100" height="25"/>
		</defs>
		<clipPath id="SVGID_00000137848238459330153390000006982941083945108641_">
			<use xlink:href="#SVGID_1_"  style="overflow:visible;"/>
		</clipPath>
		
			<g id="Group_63" transform="translate(0 0)" style="clip-path:url(#SVGID_00000137848238459330153390000006982941083945108641_);">
			<path id="Path_102" class="st1" d="M14.9,11.9c0-1.7,0.9-3.3,2.4-4.2c-0.9-1.3-2.4-2.1-4-2.2c-1.7-0.2-3.3,1-4.2,1
				c-0.9,0-2.2-1-3.6-1C3.5,5.7,1.8,6.7,0.9,8.4c-1.9,3.4-0.5,8.3,1.4,11c0.9,1.3,2,2.8,3.4,2.8c1.4-0.1,1.9-0.9,3.6-0.9
				c1.7,0,2.2,0.9,3.6,0.9c1.5,0,2.4-1.3,3.3-2.7c0.7-0.9,1.2-2,1.5-3.1C16,15.6,14.9,13.9,14.9,11.9"/>
			<path id="Path_103" class="st1" d="M12.1,3.8c0.8-1,1.2-2.2,1.1-3.5C12,0.4,10.9,1,10,2C9.2,2.9,8.8,4.1,8.9,5.3
				C10.1,5.3,11.3,4.8,12.1,3.8"/>
			<path id="Path_104" class="st1" d="M32.5,18.8h-4.8l-1.1,3.4h-2l4.5-12.5h2.1l4.5,12.5h-2.1L32.5,18.8z M28.3,17.3H32l-1.9-5.5
				h-0.1L28.3,17.3z"/>
			<path id="Path_105" class="st1" d="M45.5,17.6c0,2.8-1.5,4.6-3.8,4.6c-1.2,0.1-2.3-0.6-2.9-1.6h0v4.5h-1.9V13.1h1.8v1.5h0
				c0.6-1,1.7-1.6,2.9-1.6C43.9,13,45.4,14.8,45.5,17.6 M43.5,17.6c0-1.8-1-3.1-2.4-3.1c-1.4,0-2.4,1.2-2.4,3.1c0,1.8,1,3.1,2.4,3.1
				C42.6,20.7,43.5,19.5,43.5,17.6"/>
			<path id="Path_106" class="st1" d="M55.5,17.6c0,2.8-1.5,4.6-3.8,4.6c-1.2,0.1-2.3-0.6-2.9-1.6h0v4.5h-1.9V13.1h1.8v1.5h0
				c0.6-1,1.7-1.6,2.9-1.6C54,13,55.5,14.8,55.5,17.6 M53.6,17.6c0-1.8-1-3.1-2.4-3.1c-1.4,0-2.4,1.2-2.4,3.1c0,1.8,1,3.1,2.4,3.1
				C52.6,20.7,53.6,19.5,53.6,17.6"/>
			<path id="Path_107" class="st1" d="M62.1,18.7c0.1,1.2,1.3,2.1,3,2.1c1.6,0,2.7-0.8,2.7-1.9c0-1-0.7-1.5-2.3-1.9l-1.6-0.4
				c-2.3-0.6-3.4-1.6-3.4-3.4c0-2.2,1.9-3.6,4.5-3.6c2.6,0,4.4,1.5,4.5,3.6h-1.9c-0.1-1.2-1.1-2-2.6-2s-2.5,0.8-2.5,1.9
				c0,0.9,0.7,1.4,2.3,1.8l1.4,0.3c2.6,0.6,3.6,1.6,3.6,3.5c0,2.3-1.9,3.8-4.8,3.8c-2.8,0-4.6-1.4-4.8-3.7L62.1,18.7z"/>
			<path id="Path_108" class="st1" d="M73.8,10.9v2.2h1.7v1.5h-1.7v5c0,0.8,0.3,1.1,1.1,1.1c0.2,0,0.4,0,0.6,0v1.5
				c-0.3,0.1-0.7,0.1-1,0.1c-1.8,0-2.6-0.7-2.6-2.5v-5.2h-1.3v-1.5h1.3v-2.2H73.8z"/>
			<path id="Path_109" class="st1" d="M76.5,17.6c0-2.9,1.7-4.7,4.3-4.7s4.3,1.8,4.3,4.7s-1.7,4.7-4.3,4.7S76.5,20.5,76.5,17.6
				 M83.3,17.6c0-2-0.9-3.1-2.4-3.1s-2.4,1.2-2.4,3.1c0,2,0.9,3.1,2.4,3.1S83.3,19.6,83.3,17.6"/>
			<path id="Path_110" class="st1" d="M86.7,13.1h1.8v1.6h0c0.2-1,1.2-1.7,2.2-1.6c0.2,0,0.4,0,0.6,0.1v1.7
				c-0.3-0.1-0.6-0.1-0.8-0.1c-1,0-1.9,0.8-2,1.8c0,0.1,0,0.2,0,0.3v5.4h-1.9V13.1z"/>
			<path id="Path_111" class="st1" d="M100,19.5c-0.3,1.7-1.9,2.8-3.9,2.8c-2.6,0-4.3-1.8-4.3-4.6S93.4,13,96,13
				c2.5,0,4.1,1.7,4.1,4.5v0.6h-6.4v0.1c-0.1,1.3,0.8,2.5,2.2,2.6c0.1,0,0.2,0,0.3,0c0.9,0.1,1.8-0.4,2.1-1.3L100,19.5z M93.7,16.8
				h4.6c0.1-1.2-0.9-2.2-2.1-2.3c-0.1,0-0.1,0-0.2,0C94.7,14.5,93.7,15.5,93.7,16.8C93.7,16.8,93.7,16.8,93.7,16.8"/>
			<path id="Path_112" class="st1" d="M28,0.3c1.5-0.1,2.7,1,2.8,2.5c0,0.2,0,0.3,0,0.5c0,1.9-1,3-2.8,3h-2.2v-6L28,0.3z M26.8,5.4
				h1.1c1,0.1,1.9-0.7,2-1.8c0-0.1,0-0.3,0-0.4c0.1-1-0.6-2-1.6-2.1c-0.1,0-0.2,0-0.4,0h-1.1V5.4z"/>
			<path id="Path_113" class="st1" d="M31.9,4c-0.1-1.2,0.7-2.2,1.9-2.3c1.2-0.1,2.2,0.7,2.3,1.9c0,0.1,0,0.3,0,0.4
				c0.1,1.2-0.7,2.2-1.9,2.3c-1.2,0.1-2.2-0.7-2.3-1.9C31.9,4.3,31.9,4.2,31.9,4 M35.2,4c0-1-0.4-1.6-1.2-1.6S32.8,3,32.8,4
				s0.4,1.6,1.2,1.6S35.2,5,35.2,4"/>
			<path id="Path_114" class="st1" d="M41.8,6.3h-0.9L40,3h-0.1L39,6.3h-0.9l-1.3-4.5h0.9l0.8,3.5h0.1l0.9-3.5h0.9l0.9,3.5h0.1
				l0.8-3.5h0.9L41.8,6.3z"/>
			<path id="Path_115" class="st1" d="M44.1,1.8H45v0.7h0.1c0.2-0.5,0.8-0.9,1.4-0.8C47.2,1.6,47.9,2.2,48,3c0,0.1,0,0.2,0,0.3v2.9
				h-0.9V3.6c0-0.7-0.3-1.1-1-1.1c-0.6,0-1.1,0.4-1.1,1c0,0.1,0,0.1,0,0.2v2.6h-0.9V1.8z"/>
			<rect id="Rectangle_32" x="49.4" y="0" class="st1" width="0.9" height="6.3"/>
			<path id="Path_116" class="st1" d="M51.5,4c-0.1-1.2,0.8-2.2,1.9-2.3c1.2-0.1,2.2,0.8,2.3,1.9c0,0.1,0,0.3,0,0.4
				c0.1,1.2-0.8,2.2-1.9,2.3c-1.2,0.1-2.2-0.8-2.3-1.9C51.5,4.3,51.5,4.2,51.5,4 M54.9,4c0-1-0.4-1.6-1.2-1.6S52.5,3,52.5,4
				s0.4,1.6,1.2,1.6S54.9,5,54.9,4"/>
			<path id="Path_117" class="st1" d="M56.8,5c0-0.8,0.6-1.3,1.7-1.4l1.2-0.1V3.2c0-0.5-0.3-0.7-0.9-0.7c-0.5,0-0.8,0.2-0.9,0.5
				h-0.9c0.1-0.8,0.8-1.3,1.9-1.3c1.1,0,1.8,0.6,1.8,1.5v3.1h-0.9V5.7h-0.1c-0.3,0.5-0.8,0.7-1.4,0.7c-0.8,0.1-1.4-0.5-1.5-1.2
				C56.8,5.1,56.8,5.1,56.8,5 M59.7,4.6V4.3l-1.1,0.1c-0.6,0-0.9,0.3-0.9,0.7s0.4,0.6,0.8,0.6C59.1,5.7,59.6,5.3,59.7,4.6
				C59.7,4.7,59.7,4.6,59.7,4.6"/>
			<path id="Path_118" class="st1" d="M61.7,4c0-1.4,0.7-2.3,1.9-2.3c0.6,0,1.1,0.3,1.4,0.8h0.1V0H66v6.3h-0.9V5.6H65
				c-0.3,0.5-0.8,0.8-1.4,0.8C62.5,6.4,61.7,5.5,61.7,4 M62.7,4c0,1,0.5,1.5,1.2,1.5S65.1,5,65.1,4s-0.5-1.5-1.2-1.5
				S62.7,3.1,62.7,4"/>
			<path id="Path_119" class="st1" d="M69.7,4c-0.1-1.2,0.7-2.2,1.9-2.3c1.2-0.1,2.2,0.7,2.3,1.9c0,0.1,0,0.3,0,0.4
				C74,5.2,73.2,6.3,72,6.4c-1.2,0.1-2.2-0.7-2.3-1.9C69.6,4.3,69.6,4.2,69.7,4 M73,4c0-1-0.4-1.6-1.2-1.6S70.6,3,70.6,4
				s0.4,1.6,1.2,1.6S73,5,73,4"/>
			<path id="Path_120" class="st1" d="M75.1,1.8H76v0.7h0.1c0.2-0.5,0.8-0.9,1.4-0.8C78.2,1.6,78.9,2.2,79,3c0,0.1,0,0.2,0,0.3v2.9
				h-0.9V3.6c0-0.7-0.3-1.1-1-1.1c-0.6,0-1.1,0.4-1.1,1c0,0.1,0,0.1,0,0.2v2.6h-0.9V1.8z"/>
			<path id="Path_121" class="st1" d="M84,0.6v1.1h1v0.8h-1v2.3c0,0.5,0.2,0.7,0.6,0.7c0.1,0,0.2,0,0.3,0v0.7c-0.2,0-0.3,0-0.5,0
				c-1,0-1.4-0.3-1.4-1.2V2.5h-0.7V1.8h0.7V0.6H84z"/>
			<path id="Path_122" class="st1" d="M86.2,0h0.9v2.5h0.1C87.4,2,88,1.6,88.6,1.7c0.8,0,1.5,0.6,1.6,1.4c0,0.1,0,0.2,0,0.3v2.9
				h-0.9V3.6c0-0.7-0.3-1.1-1-1.1c-0.6,0-1.1,0.4-1.1,1c0,0.1,0,0.1,0,0.2v2.6h-0.9L86.2,0z"/>
			<path id="Path_123" class="st1" d="M95.3,5.1c-0.3,0.9-1.1,1.4-2,1.3c-1.1,0-2.1-0.9-2.1-2c0-0.1,0-0.2,0-0.3
				c-0.2-1.1,0.6-2.2,1.8-2.3c0.1,0,0.2,0,0.3,0c1.3,0,2,0.9,2,2.3v0.3h-3.2v0.1c-0.1,0.7,0.4,1.2,1.1,1.3c0,0,0.1,0,0.1,0
				c0.4,0.1,0.9-0.2,1.1-0.5L95.3,5.1z M92.2,3.6h2.3c0-0.6-0.4-1.1-1-1.2c0,0-0.1,0-0.1,0C92.7,2.4,92.2,2.9,92.2,3.6
				C92.2,3.6,92.2,3.6,92.2,3.6"/>
		</g>
	</g>
</g>
</svg>
