<?xml version="1.0" encoding="utf-8"?>
<!-- Generator: Adobe Illustrator 26.0.0, SVG Export Plug-In . SVG Version: 6.00 Build 0)  -->
<svg version="1.1" id="google-play" xmlns="http://www.w3.org/2000/svg" xmlns:xlink="http://www.w3.org/1999/xlink" x="0px"
	 y="0px" viewBox="0 0 107.6 25.4" style="enable-background:new 0 0 107.6 25.4;" xml:space="preserve">
<style type="text/css">
	.st0{clip-path:url(#SVGID_00000072971324572779808850000008083581425292827792_);}
	.st1{clip-path:url(#SVGID_00000170255418238320150180000001255699948107210635_);}
	.st2{fill:#606060;}
	.st3{clip-path:url(#SVGID_00000157281148440871223340000002064251767453105848_);}
	.st4{fill:url(#Rectangle_21_00000093875085012269094690000003171159457338147762_);}
	.st5{clip-path:url(#SVGID_00000175297387584402671670000013956605797539876250_);}
	.st6{fill:url(#Rectangle_22_00000034789948030181977420000007904385897507723136_);}
	.st7{clip-path:url(#SVGID_00000107589349851774779070000014366978378838581156_);}
	.st8{fill:url(#Rectangle_23_00000109720198493954491160000005583314035954254724_);}
	.st9{clip-path:url(#SVGID_00000108302693344420275800000015632724764955279036_);}
	.st10{fill:url(#Rectangle_24_00000011746521972686147550000011539856143607908486_);}
	.st11{clip-path:url(#SVGID_00000012447518670357269000000008107578283826446003_);}
	.st12{opacity:0.2;}
	.st13{clip-path:url(#SVGID_00000004517129930943618910000004676071026360640661_);}
	.st14{opacity:0.12;}
	.st15{clip-path:url(#SVGID_00000093159961193273866770000006000042446033742259_);}
	.st16{clip-path:url(#SVGID_00000057116736162968183370000018020153836807893425_);}
	.st17{opacity:0.25;}
	.st18{clip-path:url(#SVGID_00000164498263730249454200000001837555739280260776_);}
	.st19{fill:#FFFFFF;}
</style>
<g>
	<defs>
		<rect id="SVGID_1_" width="107.6" height="25.4"/>
	</defs>
	<clipPath id="SVGID_00000000187731851428215980000005454559976019658402_">
		<use xlink:href="#SVGID_1_"  style="overflow:visible;"/>
	</clipPath>
	<g id="Mask_Group_60" style="clip-path:url(#SVGID_00000000187731851428215980000005454559976019658402_);">
		<g id="Group_37" transform="translate(0 0)">
			<g>
				<defs>
					<rect id="SVGID_00000088122511344888800980000016713688880675926700_" width="107.6" height="25.4"/>
				</defs>
				<clipPath id="SVGID_00000099625942505000320390000014333109581188789120_">
					<use xlink:href="#SVGID_00000088122511344888800980000016713688880675926700_"  style="overflow:visible;"/>
				</clipPath>
				<g id="Group_36" style="clip-path:url(#SVGID_00000099625942505000320390000014333109581188789120_);">
					<path id="Path_87" class="st2" d="M34.8,2.7H32v0.9h2c0,0.4-0.2,0.7-0.4,1c-0.8,0.8-2.1,0.8-2.9,0C30.2,4.1,30,3.6,30,3
						c0-1.1,0.9-2.1,2-2.1c0,0,0.1,0,0.1,0c0.6,0,1.1,0.2,1.5,0.6l0.1,0.1L34.2,1l-0.1-0.1c-0.2-0.3-0.6-0.5-0.9-0.6
						C32.9,0.1,32.5,0,32,0c-0.8,0-1.6,0.3-2.1,0.9C29.4,1.4,29,2.2,29.1,3c0,0.8,0.3,1.6,0.9,2.1C30.5,5.7,31.3,6,32,6
						c0.8,0,1.6-0.3,2.1-0.9c0.5-0.5,0.8-1.2,0.7-1.9C34.9,3.1,34.9,2.9,34.8,2.7L34.8,2.7z"/>
					<path id="Path_88" class="st2" d="M35.7,5.9h3.4V5h-2.5V3.4h2.3V2.6h-2.3V1h2.5V0.1h-3.4V5.9z"/>
					<path id="Path_89" class="st2" d="M39.7,1h1.6v4.9h0.9V1h1.6V0.1h-4V1z"/>
					<rect id="Rectangle_19" x="46.3" y="0.1" class="st2" width="0.9" height="5.8"/>
					<path id="Path_90" class="st2" d="M47.9,1h1.6v4.9h0.9V1H52V0.1h-4V1z"/>
					<path id="Path_91" class="st2" d="M57.1,0c-0.8,0-1.6,0.3-2.1,0.9c-0.6,0.6-0.9,1.3-0.8,2.1c0,0.8,0.3,1.6,0.8,2.1
						c1.2,1.2,3.1,1.2,4.2,0C59.7,4.6,60,3.8,60,3c0-0.8-0.3-1.6-0.8-2.1C58.6,0.3,57.9,0,57.1,0 M57.1,5.1c-0.5,0-1.1-0.2-1.4-0.6
						C55.2,4.1,55,3.6,55,3c0-0.6,0.2-1.1,0.6-1.5c0.8-0.8,2.1-0.8,2.9,0c0,0,0,0,0,0c0.4,0.4,0.6,1,0.6,1.5c0,0.6-0.2,1.1-0.6,1.5
						C58.1,4.9,57.6,5.1,57.1,5.1"/>
					<path id="Path_92" class="st2" d="M64.4,0.1v3.4l0,0.8l-2.6-4.1h-1v5.8h0.9V2.3l0-0.8l2.7,4.3l0,0h0.9V0.1H64.4z"/>
					<path id="Path_93" class="st2" d="M54,13.9c-2.2,0-3.9,1.8-3.9,4s1.8,3.9,4,3.9c2.2,0,3.9-1.8,3.9-4c0-2.2-1.7-3.9-3.8-4
						C54.1,13.9,54.1,13.9,54,13.9 M54,20.3c-1.3,0-2.3-1.1-2.2-2.3c0,0,0,0,0-0.1c-0.1-1.2,0.8-2.3,2.1-2.4
						c1.2-0.1,2.3,0.8,2.4,2.1c0,0.1,0,0.2,0,0.3C56.3,19.1,55.4,20.2,54,20.3C54.1,20.3,54.1,20.3,54,20.3 M45.4,13.9
						c-2.2,0-3.9,1.8-3.9,4s1.8,3.9,4,3.9c2.2,0,3.9-1.8,3.9-4c0-2.2-1.7-3.9-3.8-4C45.5,13.9,45.4,13.9,45.4,13.9 M45.4,20.3
						c-1.3,0-2.3-1.1-2.2-2.3c0,0,0,0,0-0.1c-0.1-1.2,0.8-2.3,2.1-2.4c1.2-0.1,2.3,0.8,2.4,2.1c0,0.1,0,0.2,0,0.3
						C47.7,19.1,46.7,20.2,45.4,20.3C45.4,20.3,45.4,20.3,45.4,20.3 M35.1,15.1v1.7h4c-0.1,0.8-0.4,1.5-0.9,2.1
						c-0.8,0.8-1.9,1.3-3.1,1.2c-2.5,0-4.4-2.1-4.4-4.5c0-2.4,2-4.4,4.4-4.4c1.1,0,2.2,0.4,3,1.2l1.2-1.2c-1.1-1.1-2.6-1.7-4.2-1.7
						c-3.4,0-6.2,2.7-6.2,6.1c0,3.4,2.8,6.1,6.2,6.1c1.6,0.1,3.2-0.6,4.3-1.7c1-1.1,1.5-2.5,1.5-3.9c0-0.4,0-0.7-0.1-1L35.1,15.1z
						 M77.2,16.4c-0.5-1.5-1.8-2.5-3.4-2.5c-2.1,0-3.7,1.7-3.7,3.8c0,0.1,0,0.1,0,0.2c0,2.1,1.6,3.9,3.8,4c0,0,0.1,0,0.1,0
						c1.3,0,2.6-0.7,3.3-1.8l-1.3-0.9c-0.4,0.7-1.1,1.1-1.9,1.1c-0.8,0-1.6-0.4-1.9-1.2l5.3-2.2L77.2,16.4z M71.8,17.8
						c-0.1-1.2,0.8-2.2,2-2.3c0,0,0,0,0,0c0.6,0,1.2,0.3,1.5,0.8L71.8,17.8z M67.5,21.6h1.7V10h-1.7V21.6z M64.6,14.8L64.6,14.8
						c-0.6-0.6-1.3-0.9-2.1-0.9c-2.2,0.1-3.9,2-3.8,4.1c0.1,2,1.7,3.6,3.8,3.8c0.8,0,1.6-0.3,2.1-0.9h0.1v0.6c0,1.5-0.8,2.3-2.1,2.3
						c-0.9,0-1.7-0.6-2-1.4L59,23c0.6,1.4,2,2.3,3.5,2.3c2,0,3.8-1.2,3.8-4.1v-7.1h-1.6L64.6,14.8z M62.7,20.3
						c-1.3,0-2.2-1.1-2.2-2.3c0,0,0,0,0,0c-0.1-1.3,0.9-2.3,2.2-2.4c0,0,0,0,0,0c1.2,0.1,2.2,1.1,2.1,2.3c0,0,0,0.1,0,0.1
						C64.9,19.1,64,20.2,62.7,20.3C62.7,20.3,62.7,20.3,62.7,20.3 M85.3,10h-4.2v11.6h1.7v-4.4h2.4c2,0.1,3.7-1.4,3.8-3.4
						c0.1-2-1.4-3.7-3.4-3.8C85.6,10,85.4,10,85.3,10 M85.4,15.6h-2.5v-4h2.5c1.1,0,2,0.8,2,1.9C87.4,14.6,86.5,15.5,85.4,15.6
						C85.4,15.6,85.4,15.6,85.4,15.6 M96.1,13.9c-1.3-0.1-2.5,0.6-3.1,1.8l1.5,0.6c0.3-0.6,0.9-0.9,1.6-0.9c0.9-0.1,1.7,0.6,1.8,1.5
						v0.1c-0.6-0.3-1.2-0.4-1.8-0.4c-1.7,0-3.3,0.9-3.3,2.6c0.1,1.5,1.3,2.6,2.8,2.6c0,0,0.1,0,0.1,0c0.9,0.1,1.7-0.4,2.2-1.1h0.1
						v0.9h1.7v-4.5C99.6,15.1,98.1,13.9,96.1,13.9 M95.9,20.3c-0.6,0-1.4-0.3-1.4-1c0-0.9,1-1.2,1.8-1.2c0.6,0,1.1,0.1,1.6,0.4
						C97.8,19.5,96.9,20.3,95.9,20.3 M105.7,14.2l-2,5h-0.1l-2.1-5h-1.9l3.1,7l-1.8,3.9h1.8l4.8-11H105.7z M90.1,21.6h1.7V10h-1.7
						L90.1,21.6z"/>
				</g>
			</g>
		</g>
		<g id="Group_39" transform="translate(0 0.651)">
			<g>
				<defs>
					<path id="SVGID_00000165950570053032617350000010220215950017426308_" d="M0.4,0.1C0.1,0.4,0,0.9,0,1.4v20.5
						c0,0.5,0.1,0.9,0.4,1.3l0.1,0.1L12,11.8v-0.3L0.4,0.1L0.4,0.1z"/>
				</defs>
				<clipPath id="SVGID_00000032632481321469205590000006763455198914936198_">
					<use xlink:href="#SVGID_00000165950570053032617350000010220215950017426308_"  style="overflow:visible;"/>
				</clipPath>
				<g id="Group_38" style="clip-path:url(#SVGID_00000032632481321469205590000006763455198914936198_);">
					
						<linearGradient id="Rectangle_21_00000086684879022744001700000017699996194685182087_" gradientUnits="userSpaceOnUse" x1="-1027.951" y1="649.1752" x2="-1027.5421" y2="649.1742" gradientTransform="matrix(-21.616 12.48 12.48 21.616 -30310.6953 -1196.4811)">
						<stop  offset="0" style="stop-color:#00A0FF"/>
						<stop  offset="7.000001e-03" style="stop-color:#00A1FF"/>
						<stop  offset="0.26" style="stop-color:#00BEFF"/>
						<stop  offset="0.512" style="stop-color:#00D2FF"/>
						<stop  offset="0.76" style="stop-color:#00DFFF"/>
						<stop  offset="1" style="stop-color:#00E3FF"/>
					</linearGradient>
					<polygon id="Rectangle_21" style="fill:url(#Rectangle_21_00000086684879022744001700000017699996194685182087_);" points="
						23.1,14.8 1.4,27.3 -11,5.7 10.6,-6.8 					"/>
				</g>
			</g>
		</g>
		<g id="Group_41" transform="translate(12.008 8.323)">
			<g>
				<defs>
					<path id="SVGID_00000048474203248116283590000000689160585680871854_" d="M0,3.8v0.3L3.8,8l0.1,0l4.5-2.6
						c1.3-0.7,1.3-1.9,0-2.7L3.9,0L3.8,0L0,3.8z"/>
				</defs>
				<clipPath id="SVGID_00000051369679646684545170000016683422360193692600_">
					<use xlink:href="#SVGID_00000048474203248116283590000000689160585680871854_"  style="overflow:visible;"/>
				</clipPath>
				<g id="Group_40" style="clip-path:url(#SVGID_00000051369679646684545170000016683422360193692600_);">
					
						<linearGradient id="Rectangle_22_00000049209435567176650810000016933506976326050483_" gradientUnits="userSpaceOnUse" x1="-915.35" y1="527.951" x2="-915.255" y2="527.951" gradientTransform="matrix(9.768 0 0 -7.948 8929.1338 4200.1289)">
						<stop  offset="0" style="stop-color:#FFE000"/>
						<stop  offset="0.409" style="stop-color:#FFBD00"/>
						<stop  offset="0.775" style="stop-color:#FFA500"/>
						<stop  offset="1" style="stop-color:#FF9C00"/>
					</linearGradient>
					
						<rect id="Rectangle_22" x="0" y="0" style="fill:url(#Rectangle_22_00000049209435567176650810000016933506976326050483_);" width="9.8" height="7.9"/>
				</g>
			</g>
		</g>
		<g id="Group_43" transform="translate(0.43 12.296)">
			<g>
				<defs>
					<path id="SVGID_00000163763571799631107570000008723299718248433574_" d="M0,11.6c0.5,0.5,1.4,0.5,1.9,0.1l13.6-7.7L11.6,0
						L0,11.6z"/>
				</defs>
				<clipPath id="SVGID_00000166649208141476501480000008719538774632411582_">
					<use xlink:href="#SVGID_00000163763571799631107570000008723299718248433574_"  style="overflow:visible;"/>
				</clipPath>
				<g id="Group_42" style="clip-path:url(#SVGID_00000166649208141476501480000008719538774632411582_);">
					
						<linearGradient id="Rectangle_23_00000157996812487836063140000000031956509517527983_" gradientUnits="userSpaceOnUse" x1="-989.2094" y1="539.6736" x2="-989.9614" y2="539.6917" gradientTransform="matrix(13.7949 -13.7949 -13.7949 -13.7949 21104.1035 -6200.5151)">
						<stop  offset="0" style="stop-color:#FF3A44"/>
						<stop  offset="1" style="stop-color:#C31162"/>
					</linearGradient>
					<polygon id="Rectangle_23" style="fill:url(#Rectangle_23_00000157996812487836063140000000031956509517527983_);" points="
						-6,6 7.8,-7.8 21.5,6 7.8,19.8 					"/>
				</g>
			</g>
		</g>
		<g id="Group_45" transform="translate(0.43 0.348)">
			<g>
				<defs>
					<path id="SVGID_00000158716025818834322670000017811999584789270954_" d="M0,0.4l11.6,11.6L15.5,8L1.9,0.3C1.6,0.1,1.3,0,0.9,0
						C0.6,0,0.2,0.1,0,0.4"/>
				</defs>
				<clipPath id="SVGID_00000090973762488752111580000001987187264154538420_">
					<use xlink:href="#SVGID_00000158716025818834322670000017811999584789270954_"  style="overflow:visible;"/>
				</clipPath>
				<g id="Group_44" style="clip-path:url(#SVGID_00000090973762488752111580000001987187264154538420_);">
					
						<linearGradient id="Rectangle_24_00000142880717725473460210000002195214909935302294_" gradientUnits="userSpaceOnUse" x1="-989.9411" y1="551.3375" x2="-989.8941" y2="551.3375" gradientTransform="matrix(13.7249 -13.7249 -13.7249 -13.7249 21155.9336 -6008.0571)">
						<stop  offset="0" style="stop-color:#32A071"/>
						<stop  offset="6.800000e-02" style="stop-color:#2DA771"/>
						<stop  offset="0.476" style="stop-color:#15CF74"/>
						<stop  offset="0.801" style="stop-color:#06E775"/>
						<stop  offset="1" style="stop-color:#00F076"/>
					</linearGradient>
					<polygon id="Rectangle_24" style="fill:url(#Rectangle_24_00000142880717725473460210000002195214909935302294_);" points="
						-6,6 7.8,-7.8 21.5,6 7.8,19.7 					"/>
				</g>
			</g>
		</g>
		<g id="Group_59" transform="translate(0 0)">
			<g>
				<defs>
					<rect id="SVGID_00000131325478131860577240000003735021387242400916_" width="107.6" height="25.4"/>
				</defs>
				<clipPath id="SVGID_00000161621467684160946420000001943996678618141093_">
					<use xlink:href="#SVGID_00000131325478131860577240000003735021387242400916_"  style="overflow:visible;"/>
				</clipPath>
				<g id="Group_58" style="clip-path:url(#SVGID_00000161621467684160946420000001943996678618141093_);">
					<g id="Group_48" transform="translate(0.43 16.133)" class="st12">
						<g id="Group_47">
							<g>
								<defs>
									<rect id="SVGID_00000147197490345863587900000015404316516086025378_" x="0" y="0" width="15.5" height="8.1"/>
								</defs>
								<clipPath id="SVGID_00000169532162919985670160000009943542364139413666_">
									<use xlink:href="#SVGID_00000147197490345863587900000015404316516086025378_"  style="overflow:visible;"/>
								</clipPath>
								<g id="Group_46" style="clip-path:url(#SVGID_00000169532162919985670160000009943542364139413666_);">
									<path id="Path_98" d="M15.4,0L1.9,7.7c-0.5,0.4-1.3,0.4-1.9,0L0,7.7l0.1,0.1l0,0c0.6,0.4,1.3,0.4,1.9,0L15.4,0L15.4,0z"/>
								</g>
							</g>
						</g>
					</g>
					<g id="Group_51" transform="translate(0 22.433)" class="st14">
						<g id="Group_50">
							<g>
								<defs>
									<rect id="SVGID_00000111183762156419713580000001547793704644446080_" y="0" width="0.5" height="1.4"/>
								</defs>
								<clipPath id="SVGID_00000076594948566410829990000004463188568522603701_">
									<use xlink:href="#SVGID_00000111183762156419713580000001547793704644446080_"  style="overflow:visible;"/>
								</clipPath>
								<g id="Group_49" style="clip-path:url(#SVGID_00000076594948566410829990000004463188568522603701_);">
									<path id="Path_99" d="M0.4,1.3C0.1,0.9,0,0.5,0,0v0.1c0,0.5,0.1,0.9,0.4,1.3V1.3L0.4,1.3z"/>
								</g>
							</g>
						</g>
					</g>
					<g id="Group_54" transform="translate(15.845 12.296)" class="st14">
						<g id="Group_53">
							<g>
								<defs>
									<rect id="SVGID_00000073695716200271704620000010754833402202096307_" x="0" y="0" width="5.6" height="3.9"/>
								</defs>
								<clipPath id="SVGID_00000031183770693283811220000007171787356862909842_">
									<use xlink:href="#SVGID_00000073695716200271704620000010754833402202096307_"  style="overflow:visible;"/>
								</clipPath>
								<g id="Group_52" style="clip-path:url(#SVGID_00000031183770693283811220000007171787356862909842_);">
									<path id="Path_100" d="M4.6,1.2L0,3.8l0.1,0.1l4.5-2.6c0.5-0.2,0.9-0.7,1-1.3C5.5,0.5,5.1,1,4.6,1.2"/>
								</g>
							</g>
						</g>
					</g>
					<g id="Group_57" transform="translate(0 0.348)" class="st17">
						<g id="Group_56">
							<g>
								<defs>
									<rect id="SVGID_00000090994303806521531590000009350666038074639500_" y="0" width="21.5" height="11.9"/>
								</defs>
								<clipPath id="SVGID_00000007419042170690866010000015740158912930056368_">
									<use xlink:href="#SVGID_00000090994303806521531590000009350666038074639500_"  style="overflow:visible;"/>
								</clipPath>
								<g id="Group_55" style="clip-path:url(#SVGID_00000007419042170690866010000015740158912930056368_);">
									<path id="Path_101" class="st19" d="M2.4,0.4l18.1,10.3c0.5,0.2,0.9,0.7,1,1.2c-0.1-0.6-0.4-1.1-1-1.3L2.4,0.3
										C1.1-0.4,0,0.2,0,1.7v0.1C0,0.3,1.1-0.3,2.4,0.4"/>
								</g>
							</g>
						</g>
					</g>
				</g>
			</g>
		</g>
	</g>
</g>
</svg>
