<svg xmlns="http://www.w3.org/2000/svg" viewBox="0 0 488.06 72.1"><g id="Layer_2" data-name="Layer 2"><g id="svg54593"><g id="logo-group"><g id="logo-center"><g id="title"><g id="path2"><path id="_Path_" data-name="&lt;Path&gt;" d="M478,42.64,459.64,3.92A7,7,0,0,0,453.46,0a6.83,6.83,0,0,0-6.18,3.91L419.48,62.3a7,7,0,0,0,3.29,9.17,6.89,6.89,0,0,0,9.06-3.3l6.49-13.59h34.6a6.79,6.79,0,0,0,5.66-3.09C481,48,479.1,45,478,42.64Zm-34.08.2,9.58-20.18,9.68,20.18Z" style="fill:#9ca39d"/><path id="_Path_2" data-name="&lt;Path&gt;" d="M408.25,23c0-14-9.57-23-24.3-23H361.82A6.86,6.86,0,0,0,355,6.8V65.29a6.85,6.85,0,0,0,13.69,0V46.75h14.93l3.09,5a6.7,6.7,0,0,0,9.37,2.06c6.28-4,1.24-10.61,1.24-10.61C404.44,39.13,408.25,31.82,408.25,23ZM383.64,34.91H368.71V13.29H384c7.11,0,10.61,4.22,10.61,10.5C394.56,29.56,391.78,34.91,383.64,34.91Z" style="fill:#9ca39d"/><path d="M297.87,72.08a6.85,6.85,0,0,1-6.8-6.79V6.8A6.86,6.86,0,0,1,297.87,0h14.21a6.85,6.85,0,0,1,0,13.69h-7.31V29.46h23.88a6.54,6.54,0,1,1,0,13.07H304.77V58.39h28.11a6.85,6.85,0,0,1,0,13.69Z" style="fill:#9ca39d"/><path d="M259.06,65.29a6.8,6.8,0,0,1-13.6,0V13.7H230.53a6.85,6.85,0,0,1,0-13.69h21.73a6.6,6.6,0,0,1,6.8,6.79Z" style="fill:#9ca39d"/><path d="M199.82,47.68V27.29a6.85,6.85,0,1,1,13.69-.1V64.46a7.37,7.37,0,0,1-2.57,6.18,6.54,6.54,0,0,1-7.1.72,11.24,11.24,0,0,1-3.51-3.08L164.6,24.51V65.29a6.85,6.85,0,0,1-13.69,0v-57c0-2.57.31-5.66,3.6-7.41,2.58-1.44,6-1.24,9.17,2.47Z" style="fill:#9ca39d"/><path id="_Path_3" data-name="&lt;Path&gt;" d="M129.07,42.64,110.74,3.92A7,7,0,0,0,104.56,0a6.84,6.84,0,0,0-6.18,3.91L70.58,62.3a7,7,0,0,0,3.3,9.17,6.9,6.9,0,0,0,9.06-3.3l6.48-13.59H124a6.79,6.79,0,0,0,5.66-3.09C132.05,48,130.2,45,129.07,42.64ZM95,42.84l9.58-20.18,9.68,20.18Z" style="fill:#9ca39d"/><path d="M0,6.8a6.85,6.85,0,0,1,13.7,0V30.48H43.35V27.29a6.85,6.85,0,0,1,13.69,0v38a6.85,6.85,0,0,1-13.69,0V43.36H13.7V65.29a6.85,6.85,0,0,1-13.7,0Z" style="fill:#9ca39d"/></g><g id="path1"><path d="M488.06,65.29a6.85,6.85,0,1,1-6.9-6.9A6.87,6.87,0,0,1,488.06,65.29Z" style="fill:#1eafb2"/><path d="M403.62,72a6.85,6.85,0,1,1,6.8-6.79A6.86,6.86,0,0,1,403.62,72Z" style="fill:#1eafb2"/><path d="M332.57,13.7a6.9,6.9,0,0,1-6.9-6.9,6.85,6.85,0,1,1,6.9,6.9Z" style="fill:#1eafb2"/><path d="M280.78,6.8A6.85,6.85,0,1,1,274,0,6.88,6.88,0,0,1,280.78,6.8Z" style="fill:#1eafb2"/><path d="M213.51,6.8A6.85,6.85,0,1,1,206.72,0,6.79,6.79,0,0,1,213.51,6.8Z" style="fill:#1eafb2"/><path d="M139.16,65.29a6.85,6.85,0,1,1-6.9-6.9A6.87,6.87,0,0,1,139.16,65.29Z" style="fill:#1eafb2"/><path d="M43.35,6.8a6.85,6.85,0,1,1,6.9,6.9A6.9,6.9,0,0,1,43.35,6.8Z" style="fill:#1eafb2"/></g></g></g></g></g></g></svg>